STARTFONT 2.1
FONT -sun-helmet-bold-r-normal--10-100-75-75-p-63-adobe-fontspecific
SIZE 10 75 75
FONTBOUNDINGBOX 13 13 -2 -3

STARTPROPERTIES 28
FOUNDRY "sun"
FAMILY_NAME "helmet"
WEIGHT_NAME "bold"
SLANT "r"
SETWIDTH_NAME "normal"
ADD_STYLE_NAME ""
PIXEL_SIZE 10
POINT_SIZE 100
RESOLUTION_X 75
RESOLUTION_Y 75
SPACING "p"
AVERAGE_WIDTH 63
CHARSET_REGISTRY "adobe"
CHARSET_ENCODING "fontspecific"
COPYRIGHT "© 1999 Sun Microsystems, Inc."
RAW_PIXELSIZE 1000
RAW_POINTSIZE 964
RAW_ASCENT 945
RAW_DESCENT 196
RAW_AVERAGE_WIDTH 6034
FACE_NAME "HelmetBoldItalic5"
_XMBDFED_INFO "Edited with xmbdfed 2.4."
WEIGHT 10
X_HEIGHT 0
QUAD_WIDTH 6
DEFAULT_CHAR 4
FONT_DESCENT 3
FONT_ASCENT 10
ENDPROPERTIES

CHARS 202

STARTCHAR char32
ENCODING 32
SWIDTH 25 0
DWIDTH 3 0
BBX 0 0 0 0
BITMAP
ENDCHAR

STARTCHAR char33
ENCODING 33
SWIDTH 34 0
DWIDTH 4 0
BBX 2 7 1 0
BITMAP
C0
C0
C0
C0
00
C0
C0
ENDCHAR

STARTCHAR char34
ENCODING 34
SWIDTH 43 0
DWIDTH 5 0
BBX 5 4 0 3
BITMAP
D8
D8
D8
90
ENDCHAR

STARTCHAR char35
ENCODING 35
SWIDTH 51 0
DWIDTH 6 0
BBX 5 8 0 0
BITMAP
28
28
F8
38
50
F8
50
50
ENDCHAR

STARTCHAR char36
ENCODING 36
SWIDTH 60 0
DWIDTH 7 0
BBX 7 9 0 -1
BITMAP
30
7C
FE
F8
7E
E6
FE
7C
30
ENDCHAR

STARTCHAR char37
ENCODING 37
SWIDTH 7 0
DWIDTH 11 0
BBX 10 8 0 0
BITMAP
6600
F400
BC00
FF80
FFC0
7EC0
17C0
1380
ENDCHAR

STARTCHAR char38
ENCODING 38
SWIDTH 68 0
DWIDTH 8 0
BBX 8 7 0 0
BITMAP
38
7C
7C
7A
DC
FC
7E
ENDCHAR

STARTCHAR char39
ENCODING 39
SWIDTH 25 0
DWIDTH 3 0
BBX 2 3 0 4
BITMAP
C0
C0
C0
ENDCHAR

STARTCHAR char40
ENCODING 40
SWIDTH 34 0
DWIDTH 4 0
BBX 3 9 1 -2
BITMAP
40
C0
C0
C0
C0
C0
C0
40
60
ENDCHAR

STARTCHAR char41
ENCODING 41
SWIDTH 34 0
DWIDTH 4 0
BBX 3 9 0 -2
BITMAP
C0
60
60
60
60
60
60
40
C0
ENDCHAR

STARTCHAR char42
ENCODING 42
SWIDTH 43 0
DWIDTH 5 0
BBX 4 4 0 3
BITMAP
40
F0
60
50
ENDCHAR

STARTCHAR char43
ENCODING 43
SWIDTH 60 0
DWIDTH 7 0
BBX 6 6 0 0
BITMAP
30
30
FC
FC
30
30
ENDCHAR

STARTCHAR char44
ENCODING 44
SWIDTH 25 0
DWIDTH 3 0
BBX 3 4 0 -2
BITMAP
C0
C0
40
80
ENDCHAR

STARTCHAR char45
ENCODING 45
SWIDTH 34 0
DWIDTH 4 0
BBX 3 2 1 2
BITMAP
E0
E0
ENDCHAR

STARTCHAR char46
ENCODING 46
SWIDTH 25 0
DWIDTH 3 0
BBX 2 2 0 0
BITMAP
C0
C0
ENDCHAR

STARTCHAR char47
ENCODING 47
SWIDTH 43 0
DWIDTH 5 0
BBX 4 7 0 0
BITMAP
30
30
30
60
60
60
C0
ENDCHAR

STARTCHAR char48
ENCODING 48
SWIDTH 60 0
DWIDTH 7 0
BBX 7 7 0 0
BITMAP
38
7C
C6
C6
CE
7C
38
ENDCHAR

STARTCHAR char49
ENCODING 49
SWIDTH 60 0
DWIDTH 7 0
BBX 4 7 1 0
BITMAP
30
F0
F0
30
30
30
30
ENDCHAR

STARTCHAR char50
ENCODING 50
SWIDTH 60 0
DWIDTH 7 0
BBX 6 7 0 0
BITMAP
38
7C
CC
18
30
7C
FC
ENDCHAR

STARTCHAR char51
ENCODING 51
SWIDTH 60 0
DWIDTH 7 0
BBX 6 7 0 0
BITMAP
78
FC
1C
1C
CC
FC
78
ENDCHAR

STARTCHAR char52
ENCODING 52
SWIDTH 60 0
DWIDTH 7 0
BBX 7 7 0 0
BITMAP
18
38
78
D8
FE
FE
18
ENDCHAR

STARTCHAR char53
ENCODING 53
SWIDTH 60 0
DWIDTH 7 0
BBX 6 7 0 0
BITMAP
7C
7C
78
7C
0C
7C
78
ENDCHAR

STARTCHAR char54
ENCODING 54
SWIDTH 60 0
DWIDTH 7 0
BBX 6 8 0 0
BITMAP
38
7C
EC
F8
FC
CC
7C
38
ENDCHAR

STARTCHAR char55
ENCODING 55
SWIDTH 60 0
DWIDTH 7 0
BBX 6 7 0 0
BITMAP
FC
FC
0C
18
10
30
30
ENDCHAR

STARTCHAR char56
ENCODING 56
SWIDTH 60 0
DWIDTH 7 0
BBX 6 8 0 0
BITMAP
78
78
EC
7C
7C
CC
FC
78
ENDCHAR

STARTCHAR char57
ENCODING 57
SWIDTH 60 0
DWIDTH 7 0
BBX 6 7 0 0
BITMAP
78
FC
CC
FC
7C
FC
78
ENDCHAR

STARTCHAR char58
ENCODING 58
SWIDTH 34 0
DWIDTH 4 0
BBX 2 5 1 0
BITMAP
C0
C0
00
C0
C0
ENDCHAR

STARTCHAR char59
ENCODING 59
SWIDTH 34 0
DWIDTH 4 0
BBX 2 7 1 -2
BITMAP
C0
C0
00
C0
C0
40
80
ENDCHAR

STARTCHAR char60
ENCODING 60
SWIDTH 51 0
DWIDTH 6 0
BBX 6 5 0 0
BITMAP
18
60
C0
30
0C
ENDCHAR

STARTCHAR char61
ENCODING 61
SWIDTH 60 0
DWIDTH 7 0
BBX 7 4 0 1
BITMAP
FE
FE
FE
FE
ENDCHAR

STARTCHAR char62
ENCODING 62
SWIDTH 51 0
DWIDTH 6 0
BBX 6 5 0 0
BITMAP
60
18
0C
30
C0
ENDCHAR

STARTCHAR char63
ENCODING 63
SWIDTH 60 0
DWIDTH 7 0
BBX 6 7 0 0
BITMAP
78
7C
1C
38
00
30
30
ENDCHAR

STARTCHAR char64
ENCODING 64
SWIDTH 7 0
DWIDTH 11 0
BBX 9 8 1 0
BITMAP
1C00
3F00
7D00
E580
E500
FE00
FF00
3C00
ENDCHAR

STARTCHAR char65
ENCODING 65
SWIDTH 68 0
DWIDTH 8 0
BBX 7 7 0 0
BITMAP
38
38
7C
6C
7C
FE
46
ENDCHAR

STARTCHAR char66
ENCODING 66
SWIDTH 68 0
DWIDTH 8 0
BBX 6 7 1 0
BITMAP
F8
FC
F8
FC
CC
FC
FC
ENDCHAR

STARTCHAR char67
ENCODING 67
SWIDTH 68 0
DWIDTH 8 0
BBX 7 7 0 0
BITMAP
3C
7E
C0
C0
E6
7E
3C
ENDCHAR

STARTCHAR char68
ENCODING 68
SWIDTH 68 0
DWIDTH 8 0
BBX 6 7 1 0
BITMAP
F0
D8
CC
CC
CC
F8
F0
ENDCHAR

STARTCHAR char69
ENCODING 69
SWIDTH 68 0
DWIDTH 8 0
BBX 6 7 1 0
BITMAP
FC
FC
F8
F8
C0
FC
FC
ENDCHAR

STARTCHAR char70
ENCODING 70
SWIDTH 60 0
DWIDTH 7 0
BBX 5 7 1 0
BITMAP
F8
F8
F8
F8
C0
C0
C0
ENDCHAR

STARTCHAR char71
ENCODING 71
SWIDTH 77 0
DWIDTH 9 0
BBX 7 7 0 0
BITMAP
38
7E
C0
CE
EE
7E
3A
ENDCHAR

STARTCHAR char72
ENCODING 72
SWIDTH 68 0
DWIDTH 8 0
BBX 6 7 1 0
BITMAP
CC
CC
FC
FC
CC
CC
CC
ENDCHAR

STARTCHAR char73
ENCODING 73
SWIDTH 25 0
DWIDTH 3 0
BBX 2 7 1 0
BITMAP
C0
C0
C0
C0
C0
C0
C0
ENDCHAR

STARTCHAR char74
ENCODING 74
SWIDTH 51 0
DWIDTH 6 0
BBX 5 7 0 0
BITMAP
18
18
18
18
D8
F8
70
ENDCHAR

STARTCHAR char75
ENCODING 75
SWIDTH 68 0
DWIDTH 8 0
BBX 7 7 1 0
BITMAP
DC
DC
F0
F8
D8
DC
CE
ENDCHAR

STARTCHAR char76
ENCODING 76
SWIDTH 60 0
DWIDTH 7 0
BBX 5 7 1 0
BITMAP
C0
C0
C0
C0
C0
F8
F8
ENDCHAR

STARTCHAR char77
ENCODING 77
SWIDTH 86 0
DWIDTH 10 0
BBX 8 7 0 0
BITMAP
F7
F7
F7
FF
DF
DB
D9
ENDCHAR

STARTCHAR char78
ENCODING 78
SWIDTH 68 0
DWIDTH 8 0
BBX 6 7 1 0
BITMAP
CC
EC
EC
FC
DC
DC
CC
ENDCHAR

STARTCHAR char79
ENCODING 79
SWIDTH 77 0
DWIDTH 9 0
BBX 8 7 0 0
BITMAP
3C
7E
C3
C3
E7
7E
3C
ENDCHAR

STARTCHAR char80
ENCODING 80
SWIDTH 60 0
DWIDTH 7 0
BBX 6 7 1 0
BITMAP
F8
FC
CC
FC
F0
C0
C0
ENDCHAR

STARTCHAR char81
ENCODING 81
SWIDTH 77 0
DWIDTH 9 0
BBX 8 8 0 -1
BITMAP
3C
7E
C3
C3
EF
7E
3F
02
ENDCHAR

STARTCHAR char82
ENCODING 82
SWIDTH 68 0
DWIDTH 8 0
BBX 6 7 1 0
BITMAP
F8
FC
CC
F8
FC
CC
CC
ENDCHAR

STARTCHAR char83
ENCODING 83
SWIDTH 60 0
DWIDTH 7 0
BBX 7 7 0 0
BITMAP
7C
DE
F8
7E
0E
FE
7C
ENDCHAR

STARTCHAR char84
ENCODING 84
SWIDTH 60 0
DWIDTH 7 0
BBX 6 7 0 0
BITMAP
FC
FC
30
30
30
30
30
ENDCHAR

STARTCHAR char85
ENCODING 85
SWIDTH 68 0
DWIDTH 8 0
BBX 6 7 1 0
BITMAP
CC
CC
CC
CC
CC
FC
78
ENDCHAR

STARTCHAR char86
ENCODING 86
SWIDTH 60 0
DWIDTH 7 0
BBX 7 7 0 0
BITMAP
CC
EC
6C
6C
78
38
38
ENDCHAR

STARTCHAR char87
ENCODING 87
SWIDTH 86 0
DWIDTH 10 0
BBX 10 7 0 0
BITMAP
CD80
DDC0
FD80
7F80
7780
7700
3700
ENDCHAR

STARTCHAR char88
ENCODING 88
SWIDTH 68 0
DWIDTH 8 0
BBX 8 7 0 0
BITMAP
E6
7E
3C
38
7C
EE
66
ENDCHAR

STARTCHAR char89
ENCODING 89
SWIDTH 68 0
DWIDTH 8 0
BBX 7 7 0 0
BITMAP
E4
7E
3C
3C
18
18
18
ENDCHAR

STARTCHAR char90
ENCODING 90
SWIDTH 60 0
DWIDTH 7 0
BBX 7 7 0 0
BITMAP
FC
FC
1C
38
70
FE
FE
ENDCHAR

STARTCHAR char91
ENCODING 91
SWIDTH 43 0
DWIDTH 5 0
BBX 4 9 1 -2
BITMAP
F0
F0
C0
C0
C0
C0
C0
F0
F0
ENDCHAR

STARTCHAR char92
ENCODING 92
SWIDTH 25 0
DWIDTH 3 0
BBX 3 8 0 0
BITMAP
80
80
40
40
40
40
20
20
ENDCHAR

STARTCHAR char93
ENCODING 93
SWIDTH 43 0
DWIDTH 5 0
BBX 3 9 0 -2
BITMAP
E0
E0
60
60
60
60
60
E0
E0
ENDCHAR

STARTCHAR char94
ENCODING 94
SWIDTH 0 0
DWIDTH 0 0
BBX 4 2 -2 8
BITMAP
60
F0
ENDCHAR

STARTCHAR char95
ENCODING 95
SWIDTH 51 0
DWIDTH 6 0
BBX 6 2 0 -2
BITMAP
FC
FC
ENDCHAR

STARTCHAR char96
ENCODING 96
SWIDTH 0 0
DWIDTH 0 0
BBX 3 2 -2 6
BITMAP
C0
60
ENDCHAR

STARTCHAR char97
ENCODING 97
SWIDTH 60 0
DWIDTH 7 0
BBX 6 5 0 0
BITMAP
78
DC
7C
FC
EC
ENDCHAR

STARTCHAR char98
ENCODING 98
SWIDTH 60 0
DWIDTH 7 0
BBX 5 7 1 0
BITMAP
C0
C0
F0
F8
D8
F8
F0
ENDCHAR

STARTCHAR char99
ENCODING 99
SWIDTH 60 0
DWIDTH 7 0
BBX 6 5 0 0
BITMAP
78
FC
C0
FC
78
ENDCHAR

STARTCHAR char100
ENCODING 100
SWIDTH 60 0
DWIDTH 7 0
BBX 6 7 0 0
BITMAP
0C
0C
7C
FC
CC
FC
7C
ENDCHAR

STARTCHAR char101
ENCODING 101
SWIDTH 60 0
DWIDTH 7 0
BBX 6 5 0 0
BITMAP
78
FC
CC
7C
78
ENDCHAR

STARTCHAR char102
ENCODING 102
SWIDTH 34 0
DWIDTH 4 0
BBX 5 8 0 0
BITMAP
28
70
60
F0
F0
60
60
60
ENDCHAR

STARTCHAR char103
ENCODING 103
SWIDTH 60 0
DWIDTH 7 0
BBX 6 7 0 -2
BITMAP
7C
DC
CC
FC
7C
7C
78
ENDCHAR

STARTCHAR char104
ENCODING 104
SWIDTH 60 0
DWIDTH 7 0
BBX 5 7 1 0
BITMAP
C0
C0
F0
F8
D8
D8
D8
ENDCHAR

STARTCHAR char105
ENCODING 105
SWIDTH 25 0
DWIDTH 3 0
BBX 2 7 1 0
BITMAP
C0
C0
C0
C0
C0
C0
C0
ENDCHAR

STARTCHAR char106
ENCODING 106
SWIDTH 25 0
DWIDTH 3 0
BBX 3 9 0 -2
BITMAP
60
60
E0
E0
E0
E0
E0
E0
E0
ENDCHAR

STARTCHAR char107
ENCODING 107
SWIDTH 60 0
DWIDTH 7 0
BBX 5 7 1 0
BITMAP
C0
C0
F8
F0
F0
F0
D8
ENDCHAR

STARTCHAR char108
ENCODING 108
SWIDTH 25 0
DWIDTH 3 0
BBX 2 7 1 0
BITMAP
C0
C0
C0
C0
C0
C0
C0
ENDCHAR

STARTCHAR char109
ENCODING 109
SWIDTH 86 0
DWIDTH 10 0
BBX 9 5 0 0
BITMAP
FB00
DD80
CD80
CD80
CD80
ENDCHAR

STARTCHAR char110
ENCODING 110
SWIDTH 60 0
DWIDTH 7 0
BBX 5 5 1 0
BITMAP
F0
F8
D8
D8
D8
ENDCHAR

STARTCHAR char111
ENCODING 111
SWIDTH 60 0
DWIDTH 7 0
BBX 6 5 0 0
BITMAP
78
FC
CC
FC
78
ENDCHAR

STARTCHAR char112
ENCODING 112
SWIDTH 60 0
DWIDTH 7 0
BBX 5 7 1 -2
BITMAP
F0
F8
D8
F8
F0
C0
C0
ENDCHAR

STARTCHAR char113
ENCODING 113
SWIDTH 60 0
DWIDTH 7 0
BBX 6 7 0 -2
BITMAP
7C
FC
CC
FC
7C
0C
0C
ENDCHAR

STARTCHAR char114
ENCODING 114
SWIDTH 43 0
DWIDTH 5 0
BBX 4 5 1 0
BITMAP
F0
F0
C0
C0
C0
ENDCHAR

STARTCHAR char115
ENCODING 115
SWIDTH 51 0
DWIDTH 6 0
BBX 5 5 0 0
BITMAP
70
F8
78
F8
70
ENDCHAR

STARTCHAR char116
ENCODING 116
SWIDTH 34 0
DWIDTH 4 0
BBX 4 7 0 0
BITMAP
60
60
F0
F0
60
60
70
ENDCHAR

STARTCHAR char117
ENCODING 117
SWIDTH 60 0
DWIDTH 7 0
BBX 5 5 1 0
BITMAP
D8
D8
D8
F8
78
ENDCHAR

STARTCHAR char118
ENCODING 118
SWIDTH 51 0
DWIDTH 6 0
BBX 6 5 0 0
BITMAP
D8
D8
78
78
70
ENDCHAR

STARTCHAR char119
ENCODING 119
SWIDTH 86 0
DWIDTH 10 0
BBX 9 5 0 0
BITMAP
D900
DF80
7F00
7700
7600
ENDCHAR

STARTCHAR char120
ENCODING 120
SWIDTH 51 0
DWIDTH 6 0
BBX 6 5 0 0
BITMAP
F8
78
70
78
5C
ENDCHAR

STARTCHAR char121
ENCODING 121
SWIDTH 51 0
DWIDTH 6 0
BBX 6 7 0 -2
BITMAP
C8
D8
78
78
30
F0
E0
ENDCHAR

STARTCHAR char122
ENCODING 122
SWIDTH 51 0
DWIDTH 6 0
BBX 5 5 0 0
BITMAP
F8
F8
70
F8
F8
ENDCHAR

STARTCHAR char123
ENCODING 123
SWIDTH 34 0
DWIDTH 4 0
BBX 3 10 0 -3
BITMAP
60
60
40
60
80
40
40
60
60
60
ENDCHAR

STARTCHAR char124
ENCODING 124
SWIDTH 25 0
DWIDTH 3 0
BBX 2 8 0 0
BITMAP
C0
C0
C0
C0
C0
C0
C0
C0
ENDCHAR

STARTCHAR char125
ENCODING 125
SWIDTH 34 0
DWIDTH 4 0
BBX 3 10 0 -3
BITMAP
C0
C0
60
60
20
60
60
60
E0
E0
ENDCHAR

STARTCHAR char126
ENCODING 126
SWIDTH 0 0
DWIDTH 0 0
BBX 4 2 -2 8
BITMAP
F0
F0
ENDCHAR

STARTCHAR char128
ENCODING 128
SWIDTH 68 0
DWIDTH 8 0
BBX 8 7 0 0
BITMAP
1C
3E
F8
F8
67
3E
1C
ENDCHAR

STARTCHAR char130
ENCODING 130
SWIDTH 25 0
DWIDTH 3 0
BBX 3 4 0 -2
BITMAP
C0
C0
40
80
ENDCHAR

STARTCHAR char131
ENCODING 131
SWIDTH 0 0
DWIDTH 0 0
BBX 4 2 -2 8
BITMAP
60
F0
ENDCHAR

STARTCHAR char132
ENCODING 132
SWIDTH 51 0
DWIDTH 6 0
BBX 5 4 0 -2
BITMAP
D8
D8
48
90
ENDCHAR

STARTCHAR char133
ENCODING 133
SWIDTH 7 0
DWIDTH 11 0
BBX 9 2 1 0
BITMAP
D980
D980
ENDCHAR

STARTCHAR char134
ENCODING 134
SWIDTH 51 0
DWIDTH 6 0
BBX 6 9 0 -2
BITMAP
30
30
FC
FC
30
30
30
30
30
ENDCHAR

STARTCHAR char136
ENCODING 136
SWIDTH 0 0
DWIDTH 0 0
BBX 4 2 -2 5
BITMAP
60
F0
ENDCHAR

STARTCHAR char138
ENCODING 138
SWIDTH 86 0
DWIDTH 10 0
BBX 0 0 0 0
BITMAP
ENDCHAR

STARTCHAR char139
ENCODING 139
SWIDTH 34 0
DWIDTH 4 0
BBX 2 4 1 1
BITMAP
40
80
80
40
ENDCHAR

STARTCHAR char140
ENCODING 140
SWIDTH 16 0
DWIDTH 12 0
BBX 11 7 0 0
BITMAP
3FE0
7FE0
C7C0
C7C0
E600
7FE0
3FE0
ENDCHAR

STARTCHAR char141
ENCODING 141
SWIDTH 86 0
DWIDTH 10 0
BBX 0 0 0 0
BITMAP
ENDCHAR

STARTCHAR char145
ENCODING 145
SWIDTH 25 0
DWIDTH 3 0
BBX 2 3 0 4
BITMAP
C0
C0
C0
ENDCHAR

STARTCHAR char146
ENCODING 146
SWIDTH 25 0
DWIDTH 3 0
BBX 2 4 0 3
BITMAP
C0
C0
40
80
ENDCHAR

STARTCHAR char147
ENCODING 147
SWIDTH 51 0
DWIDTH 6 0
BBX 5 3 0 4
BITMAP
D8
D8
D8
ENDCHAR

STARTCHAR char148
ENCODING 148
SWIDTH 51 0
DWIDTH 6 0
BBX 5 4 0 3
BITMAP
D8
D8
D8
90
ENDCHAR

STARTCHAR char149
ENCODING 149
SWIDTH 34 0
DWIDTH 4 0
BBX 2 3 1 2
BITMAP
C0
C0
C0
ENDCHAR

STARTCHAR char150
ENCODING 150
SWIDTH 60 0
DWIDTH 7 0
BBX 6 2 0 2
BITMAP
FC
FC
ENDCHAR

STARTCHAR char151
ENCODING 151
SWIDTH 60 0
DWIDTH 7 0
BBX 7 2 0 2
BITMAP
FE
FE
ENDCHAR

STARTCHAR char152
ENCODING 152
SWIDTH 0 0
DWIDTH 0 0
BBX 5 2 -2 6
BITMAP
E8
F0
ENDCHAR

STARTCHAR char153
ENCODING 153
SWIDTH 77 0
DWIDTH 9 0
BBX 10 4 0 3
BITMAP
F900
4D80
4E80
7F40
ENDCHAR

STARTCHAR char155
ENCODING 155
SWIDTH 34 0
DWIDTH 4 0
BBX 2 4 1 1
BITMAP
80
80
C0
80
ENDCHAR

STARTCHAR char156
ENCODING 156
SWIDTH 86 0
DWIDTH 10 0
BBX 10 5 0 0
BITMAP
7F00
CF80
CD80
FD80
7F00
ENDCHAR

STARTCHAR char157
ENCODING 157
SWIDTH 86 0
DWIDTH 10 0
BBX 0 0 0 0
BITMAP
ENDCHAR

STARTCHAR char159
ENCODING 159
SWIDTH 68 0
DWIDTH 8 0
BBX 7 10 0 0
BITMAP
6C
6C
00
E6
6C
7C
38
38
38
38
ENDCHAR

STARTCHAR char160
ENCODING 160
SWIDTH 25 0
DWIDTH 3 0
BBX 0 0 0 0
BITMAP
ENDCHAR

STARTCHAR char161
ENCODING 161
SWIDTH 34 0
DWIDTH 4 0
BBX 2 7 1 0
BITMAP
C0
C0
40
C0
C0
C0
C0
ENDCHAR

STARTCHAR char162
ENCODING 162
SWIDTH 60 0
DWIDTH 7 0
BBX 6 7 0 -1
BITMAP
30
78
DC
E0
FC
78
30
ENDCHAR

STARTCHAR char163
ENCODING 163
SWIDTH 60 0
DWIDTH 7 0
BBX 6 7 0 0
BITMAP
38
7C
F0
F0
30
FC
7C
ENDCHAR

STARTCHAR char164
ENCODING 164
SWIDTH 0 0
DWIDTH 0 0
BBX 3 2 -1 8
BITMAP
E0
C0
ENDCHAR

STARTCHAR char165
ENCODING 165
SWIDTH 0 0
DWIDTH 0 0
BBX 4 2 -2 8
BITMAP
F0
60
ENDCHAR

STARTCHAR char166
ENCODING 166
SWIDTH 86 0
DWIDTH 10 0
BBX 0 0 0 0
BITMAP
ENDCHAR

STARTCHAR char167
ENCODING 167
SWIDTH 60 0
DWIDTH 7 0
BBX 6 9 0 -2
BITMAP
38
7C
78
DC
E4
7C
0C
7C
38
ENDCHAR

STARTCHAR char168
ENCODING 168
SWIDTH 0 0
DWIDTH 0 0
BBX 4 2 -2 6
BITMAP
F0
F0
ENDCHAR

STARTCHAR char169
ENCODING 169
SWIDTH 68 0
DWIDTH 8 0
BBX 8 7 0 0
BITMAP
38
4E
F6
E3
E3
7A
3C
ENDCHAR

STARTCHAR char170
ENCODING 170
SWIDTH 0 0
DWIDTH 0 0
BBX 4 2 -2 8
BITMAP
F0
F0
ENDCHAR

STARTCHAR char171
ENCODING 171
SWIDTH 34 0
DWIDTH 4 0
BBX 4 5 0 0
BITMAP
50
F0
A0
F0
50
ENDCHAR

STARTCHAR char172
ENCODING 172
SWIDTH 68 0
DWIDTH 8 0
BBX 7 3 0 0
BITMAP
FE
06
06
ENDCHAR

STARTCHAR char174
ENCODING 174
SWIDTH 68 0
DWIDTH 8 0
BBX 9 7 -1 0
BITMAP
1C00
2300
5F00
D980
5D80
7F00
1E00
ENDCHAR

STARTCHAR char176
ENCODING 176
SWIDTH 25 0
DWIDTH 3 0
BBX 4 3 -1 4
BITMAP
60
F0
60
ENDCHAR

STARTCHAR char177
ENCODING 177
SWIDTH 51 0
DWIDTH 6 0
BBX 5 7 0 0
BITMAP
30
30
F8
F8
30
F8
F8
ENDCHAR

STARTCHAR char179
ENCODING 179
SWIDTH 86 0
DWIDTH 10 0
BBX 0 0 0 0
BITMAP
ENDCHAR

STARTCHAR char180
ENCODING 180
SWIDTH 0 0
DWIDTH 0 0
BBX 3 2 -1 5
BITMAP
E0
C0
ENDCHAR

STARTCHAR char182
ENCODING 182
SWIDTH 60 0
DWIDTH 7 0
BBX 5 9 1 -2
BITMAP
78
F8
D8
58
58
58
58
58
58
ENDCHAR

STARTCHAR char183
ENCODING 183
SWIDTH 17 0
DWIDTH 2 0
BBX 2 2 0 2
BITMAP
C0
C0
ENDCHAR

STARTCHAR char184
ENCODING 184
SWIDTH 0 0
DWIDTH 0 0
BBX 2 3 -1 -2
BITMAP
C0
C0
C0
ENDCHAR

STARTCHAR char186
ENCODING 186
SWIDTH 0 0
DWIDTH 0 0
BBX 4 2 -2 8
BITMAP
F0
F0
ENDCHAR

STARTCHAR char187
ENCODING 187
SWIDTH 34 0
DWIDTH 4 0
BBX 4 5 0 0
BITMAP
A0
F0
50
F0
A0
ENDCHAR

STARTCHAR char189
ENCODING 189
SWIDTH 86 0
DWIDTH 10 0
BBX 0 0 0 0
BITMAP
ENDCHAR

STARTCHAR char191
ENCODING 191
SWIDTH 60 0
DWIDTH 7 0
BBX 6 7 0 0
BITMAP
30
30
30
70
E0
FC
78
ENDCHAR

STARTCHAR char192
ENCODING 192
SWIDTH 68 0
DWIDTH 8 0
BBX 7 10 0 0
BITMAP
30
30
00
38
38
7C
6C
FE
FE
46
ENDCHAR

STARTCHAR char193
ENCODING 193
SWIDTH 68 0
DWIDTH 8 0
BBX 7 10 0 0
BITMAP
18
10
00
38
38
7C
6C
FE
FE
46
ENDCHAR

STARTCHAR char194
ENCODING 194
SWIDTH 68 0
DWIDTH 8 0
BBX 7 10 0 0
BITMAP
38
78
00
38
38
7C
6C
FE
FE
46
ENDCHAR

STARTCHAR char195
ENCODING 195
SWIDTH 68 0
DWIDTH 8 0
BBX 7 10 0 0
BITMAP
38
38
00
38
38
7C
6C
FE
FE
46
ENDCHAR

STARTCHAR char196
ENCODING 196
SWIDTH 68 0
DWIDTH 8 0
BBX 7 10 0 0
BITMAP
0C
6C
00
38
38
6C
6C
FE
FE
46
ENDCHAR

STARTCHAR char197
ENCODING 197
SWIDTH 68 0
DWIDTH 8 0
BBX 7 10 0 0
BITMAP
38
38
38
38
38
7C
7C
FE
FE
46
ENDCHAR

STARTCHAR char198
ENCODING 198
SWIDTH 7 0
DWIDTH 11 0
BBX 10 7 0 0
BITMAP
3FC0
3FC0
6F80
6F80
FC00
FFC0
4FC0
ENDCHAR

STARTCHAR char199
ENCODING 199
SWIDTH 68 0
DWIDTH 8 0
BBX 7 9 0 -2
BITMAP
3C
7E
E0
C0
E6
7E
3C
18
18
ENDCHAR

STARTCHAR char200
ENCODING 200
SWIDTH 68 0
DWIDTH 8 0
BBX 6 10 1 0
BITMAP
60
20
00
FC
FC
F8
F8
C0
FC
FC
ENDCHAR

STARTCHAR char201
ENCODING 201
SWIDTH 68 0
DWIDTH 8 0
BBX 6 10 1 0
BITMAP
30
20
00
FC
FC
F8
F8
C0
FC
FC
ENDCHAR

STARTCHAR char202
ENCODING 202
SWIDTH 68 0
DWIDTH 8 0
BBX 6 10 1 0
BITMAP
70
70
00
FC
FC
F8
F8
C0
FC
FC
ENDCHAR

STARTCHAR char203
ENCODING 203
SWIDTH 68 0
DWIDTH 8 0
BBX 6 10 1 0
BITMAP
D8
D8
00
FC
FC
F8
F8
C0
FC
FC
ENDCHAR

STARTCHAR char204
ENCODING 204
SWIDTH 25 0
DWIDTH 3 0
BBX 3 10 0 0
BITMAP
C0
40
00
60
60
60
60
60
60
60
ENDCHAR

STARTCHAR char205
ENCODING 205
SWIDTH 25 0
DWIDTH 3 0
BBX 3 10 1 0
BITMAP
C0
C0
00
C0
C0
C0
C0
C0
C0
C0
ENDCHAR

STARTCHAR char206
ENCODING 206
SWIDTH 25 0
DWIDTH 3 0
BBX 5 10 -1 0
BITMAP
70
70
00
30
30
30
30
30
30
30
ENDCHAR

STARTCHAR char207
ENCODING 207
SWIDTH 25 0
DWIDTH 3 0
BBX 5 10 -1 0
BITMAP
D8
D8
00
70
70
70
70
70
70
70
ENDCHAR

STARTCHAR char209
ENCODING 209
SWIDTH 68 0
DWIDTH 8 0
BBX 6 10 1 0
BITMAP
70
70
00
CC
EC
FC
FC
DC
DC
CC
ENDCHAR

STARTCHAR char210
ENCODING 210
SWIDTH 77 0
DWIDTH 9 0
BBX 8 10 0 0
BITMAP
30
10
00
3C
7E
C3
C3
E7
7E
3C
ENDCHAR

STARTCHAR char211
ENCODING 211
SWIDTH 77 0
DWIDTH 9 0
BBX 8 10 0 0
BITMAP
1C
18
00
3C
7E
C3
C3
E7
7E
3C
ENDCHAR

STARTCHAR char212
ENCODING 212
SWIDTH 77 0
DWIDTH 9 0
BBX 8 10 0 0
BITMAP
38
3C
00
3C
7E
C3
C3
E7
7E
3C
ENDCHAR

STARTCHAR char213
ENCODING 213
SWIDTH 77 0
DWIDTH 9 0
BBX 8 10 0 0
BITMAP
3C
38
00
3C
7E
C3
C3
E7
7E
3C
ENDCHAR

STARTCHAR char214
ENCODING 214
SWIDTH 77 0
DWIDTH 9 0
BBX 8 10 0 0
BITMAP
3C
3C
00
3C
7E
E7
E7
E7
7E
3C
ENDCHAR

STARTCHAR char216
ENCODING 216
SWIDTH 77 0
DWIDTH 9 0
BBX 8 9 0 -1
BITMAP
01
3D
7F
CF
D3
F7
7E
BC
80
ENDCHAR

STARTCHAR char217
ENCODING 217
SWIDTH 68 0
DWIDTH 8 0
BBX 6 10 1 0
BITMAP
60
20
00
CC
CC
CC
CC
CC
FC
78
ENDCHAR

STARTCHAR char218
ENCODING 218
SWIDTH 68 0
DWIDTH 8 0
BBX 6 10 1 0
BITMAP
30
20
00
CC
CC
CC
CC
CC
FC
78
ENDCHAR

STARTCHAR char219
ENCODING 219
SWIDTH 68 0
DWIDTH 8 0
BBX 6 10 1 0
BITMAP
30
50
00
CC
CC
CC
CC
CC
FC
78
ENDCHAR

STARTCHAR char220
ENCODING 220
SWIDTH 68 0
DWIDTH 8 0
BBX 6 10 1 0
BITMAP
58
58
00
CC
CC
CC
CC
CC
FC
78
ENDCHAR

STARTCHAR char222
ENCODING 222
SWIDTH 86 0
DWIDTH 10 0
BBX 0 0 0 0
BITMAP
ENDCHAR

STARTCHAR char223
ENCODING 223
SWIDTH 60 0
DWIDTH 7 0
BBX 6 7 0 0
BITMAP
78
DC
D8
DC
CC
DC
D8
ENDCHAR

STARTCHAR char224
ENCODING 224
SWIDTH 60 0
DWIDTH 7 0
BBX 6 8 0 0
BITMAP
60
30
00
78
DC
7C
FC
EC
ENDCHAR

STARTCHAR char225
ENCODING 225
SWIDTH 60 0
DWIDTH 7 0
BBX 6 7 0 0
BITMAP
38
30
78
DC
7C
FC
EC
ENDCHAR

STARTCHAR char226
ENCODING 226
SWIDTH 60 0
DWIDTH 7 0
BBX 6 7 0 0
BITMAP
30
78
78
DC
7C
FC
EC
ENDCHAR

STARTCHAR char227
ENCODING 227
SWIDTH 60 0
DWIDTH 7 0
BBX 6 8 0 0
BITMAP
74
78
00
78
DC
7C
FC
EC
ENDCHAR

STARTCHAR char228
ENCODING 228
SWIDTH 60 0
DWIDTH 7 0
BBX 6 8 0 0
BITMAP
18
78
00
78
FC
7C
FC
7C
ENDCHAR

STARTCHAR char229
ENCODING 229
SWIDTH 60 0
DWIDTH 7 0
BBX 6 9 0 0
BITMAP
30
30
30
30
78
FC
7C
FC
6C
ENDCHAR

STARTCHAR char230
ENCODING 230
SWIDTH 86 0
DWIDTH 10 0
BBX 9 5 0 0
BITMAP
7F00
7F80
F980
FF80
F700
ENDCHAR

STARTCHAR char231
ENCODING 231
SWIDTH 60 0
DWIDTH 7 0
BBX 6 7 0 -2
BITMAP
38
FC
C0
EC
78
30
30
ENDCHAR

STARTCHAR char232
ENCODING 232
SWIDTH 60 0
DWIDTH 7 0
BBX 6 8 0 0
BITMAP
60
30
00
78
FC
CC
7C
78
ENDCHAR

STARTCHAR char233
ENCODING 233
SWIDTH 60 0
DWIDTH 7 0
BBX 6 7 0 0
BITMAP
38
30
78
FC
CC
7C
78
ENDCHAR

STARTCHAR char234
ENCODING 234
SWIDTH 60 0
DWIDTH 7 0
BBX 6 7 0 0
BITMAP
30
78
78
FC
CC
7C
78
ENDCHAR

STARTCHAR char235
ENCODING 235
SWIDTH 60 0
DWIDTH 7 0
BBX 6 8 0 0
BITMAP
78
78
00
38
FC
EC
7C
38
ENDCHAR

STARTCHAR char236
ENCODING 236
SWIDTH 25 0
DWIDTH 3 0
BBX 4 8 -1 0
BITMAP
60
20
00
30
30
30
30
30
ENDCHAR

STARTCHAR char237
ENCODING 237
SWIDTH 25 0
DWIDTH 3 0
BBX 3 7 1 0
BITMAP
C0
C0
C0
C0
C0
C0
C0
ENDCHAR

STARTCHAR char238
ENCODING 238
SWIDTH 25 0
DWIDTH 3 0
BBX 4 7 -1 0
BITMAP
70
F0
30
30
30
30
30
ENDCHAR

STARTCHAR char239
ENCODING 239
SWIDTH 25 0
DWIDTH 3 0
BBX 5 8 -1 0
BITMAP
D8
D8
00
30
30
30
70
70
ENDCHAR

STARTCHAR char241
ENCODING 241
SWIDTH 60 0
DWIDTH 7 0
BBX 6 8 0 0
BITMAP
74
78
00
F8
FC
EC
EC
EC
ENDCHAR

STARTCHAR char242
ENCODING 242
SWIDTH 60 0
DWIDTH 7 0
BBX 6 8 0 0
BITMAP
60
30
00
78
FC
CC
FC
78
ENDCHAR

STARTCHAR char243
ENCODING 243
SWIDTH 60 0
DWIDTH 7 0
BBX 6 7 0 0
BITMAP
38
30
78
FC
CC
FC
78
ENDCHAR

STARTCHAR char244
ENCODING 244
SWIDTH 60 0
DWIDTH 7 0
BBX 6 7 0 0
BITMAP
70
78
78
FC
CC
FC
78
ENDCHAR

STARTCHAR char245
ENCODING 245
SWIDTH 60 0
DWIDTH 7 0
BBX 6 8 0 0
BITMAP
7C
70
00
78
FC
CC
FC
78
ENDCHAR

STARTCHAR char246
ENCODING 246
SWIDTH 60 0
DWIDTH 7 0
BBX 6 7 0 0
BITMAP
68
08
78
DC
CC
FC
78
ENDCHAR

STARTCHAR char247
ENCODING 247
SWIDTH 51 0
DWIDTH 6 0
BBX 5 5 0 0
BITMAP
30
F8
F8
30
30
ENDCHAR

STARTCHAR char248
ENCODING 248
SWIDTH 60 0
DWIDTH 7 0
BBX 6 6 0 0
BITMAP
08
78
FC
EC
FC
F8
ENDCHAR

STARTCHAR char249
ENCODING 249
SWIDTH 60 0
DWIDTH 7 0
BBX 5 8 1 0
BITMAP
40
20
00
D8
D8
D8
F8
78
ENDCHAR

STARTCHAR char250
ENCODING 250
SWIDTH 60 0
DWIDTH 7 0
BBX 5 7 1 0
BITMAP
30
20
D8
D8
D8
F8
78
ENDCHAR

STARTCHAR char251
ENCODING 251
SWIDTH 60 0
DWIDTH 7 0
BBX 5 7 1 0
BITMAP
60
F0
D8
D8
D8
F8
78
ENDCHAR

STARTCHAR char252
ENCODING 252
SWIDTH 60 0
DWIDTH 7 0
BBX 5 8 1 0
BITMAP
D0
D0
00
D8
D8
D8
F8
78
ENDCHAR

STARTCHAR char255
ENCODING 255
SWIDTH 51 0
DWIDTH 6 0
BBX 6 10 0 -2
BITMAP
D8
D8
00
CC
D8
78
78
70
F0
E0
ENDCHAR
ENDFONT
